<?xml version="1.0" encoding="utf-8"?>
<!-- Generator: Adobe Illustrator 19.2.1, SVG Export Plug-In . SVG Version: 6.00 Build 0)  -->
<svg version="1.1" id="layer" xmlns="http://www.w3.org/2000/svg" xmlns:xlink="http://www.w3.org/1999/xlink" x="0px" y="0px"
	 viewBox="0 0 652 652" style="enable-background:new 0 0 652 652;" xml:space="preserve">
<style type="text/css">
	.st0{fill:#4A89DC;}
</style>
<path class="st0" d="M322.6,306.3c0.4-7,2.9-12.8,6.8-17.3v-6h-5.3c-10.6,0-19.6,4.1-24.8,13.3H299v-12.2h-27.2v74.7H299v-30.1
	c0-12.8,3.7-22.5,18.9-22.5C319.5,306.1,321.1,306.1,322.6,306.3z"/>
<path class="st0" d="M528.7,306.1c2.3-6.6,5.9-12.5,10.7-17.2V283h-5.2c-10.6,0-19.6,4.1-24.8,13.3H509v-12.2h-27.2v74.7H509v-30.1
	c0-12.8,3.8-22.5,18.9-22.5L528.7,306.1z"/>
<path class="st0" d="M377.8,303.3c-4.2-2.2-10-3.6-14.7-3.6c-3.1,0-8.5,1.3-8.5,5.1c0,5.1,8.5,5.8,12.3,6.6
	c12.7,2.5,22.3,8.3,22.3,22.1c0,19.6-18.4,27.8-36.2,27.8c-10.9,0-21.7-3.1-31-8.6l9.9-18.5c5.5,3.8,14.8,7.6,21.5,7.6
	c3.4,0,8.5-1.6,8.5-5.7c0-5.8-8.5-6.1-17.1-8.3c-8.5-2.2-17-6.3-17-19.6c0-18.3,17-26.5,33.8-26.5c8.7,0,17.4,1.3,25.3,4.8
	L377.8,303.3z"/>
<path class="st0" d="M621,358.7h-27.2v-8.3h-0.3c-4.8,7.4-14.2,10.8-23.2,10.8c-22.8,0-38.8-18.5-38.8-39.9
	c0-21.4,15.7-39.7,38.4-39.7c8.8,0,18.1,3.2,23.8,9.7v-7.3H621L621,358.7L621,358.7z M559.7,321.5c0,9.5,6.4,16.7,17.5,16.7
	c11.1,0,17.5-7.3,17.5-16.7c0-9.2-6.4-16.9-17.5-16.9C566.1,304.6,559.7,312.3,559.7,321.5z"/>
<path class="st0" d="M477.5,325.8h-57.3c0,10.8,5.9,16.6,17.1,16.6c5.8,0,10-1.9,13-6.8h26.2c-4.3,17.6-21.5,25.6-39,25.6
	c-25.4,0-44.4-14-44.4-39.7c0-24.9,17.5-39.9,42.5-39.9c26.6,0,42.1,16,42.1,41.5L477.5,325.8L477.5,325.8z M452.2,310.6
	c-1.3-7.1-8.1-11.8-15.4-11.8c-7.9,0-14.5,4.1-16.2,11.8C420.6,310.6,452.2,310.6,452.2,310.6z"/>
<g>
	<g>
		<path class="st0" d="M185.2,320.2c0-0.6-0.1-1.3-0.1-1.9c0,0,0,0,0,0c0,0,0,0,0,0c-0.6-6.9-2.9-13.4-6.8-19.3
			c-1.7-2.6-3.7-5-5.9-7.1c-3.2-3.1-7-5.7-11.2-7.7c-6.4-3-13.4-4.6-20.9-4.6c-0.7,0-1.5,0-2.3,0c-5.3,0.2-10.4,1.2-15.2,3
			c-4.8,1.7-9,4-12.5,6.8c-0.7,0.6-1.5,1.2-2.3,2l-0.6,0.6l-0.8,0.9h0h0l-0.4,0.4l-0.2,0.2l-1,1c-0.7,0.8-1.4,1.6-2,2.4l0,0l0,0
			c-1.3,1.6-2.5,3.3-3.4,4.7c-0.6,1-1.2,1.9-1.8,2.9l-7.8,15.9l0,0l-0.4,0.8l-0.9,1.8c-1.7,3.5-3.6,7-5.6,9.8
			c-4.6,5-9.8,7.5-16.5,7.5c-0.5,0-0.9,0-1.4-0.1c-4-0.2-7.5-1.1-10.5-2.9c-0.3-0.2-0.6-0.4-1-0.6c-2.5-1.7-4.4-3.8-5.8-6.5
			c-1.6-3-2.3-6.1-2.2-9.4c0-0.1,0-0.2,0-0.2c0.2-5.2,2.2-9.2,6.2-12.7c1-0.8,2-1.5,3-2.2c0.2-0.1,0.3-0.2,0.5-0.3
			c3-1.6,6.3-2.4,10.2-2.4l1.2,0c6.2,0.2,10.9,2.2,14.7,5.9l11.9-21.3c-2.8-1.9-6-3.5-9.6-4.9c-0.1,0-0.3-0.1-0.4-0.1
			c-0.4-0.1-0.8-0.3-1.3-0.4c-3.8-1.3-7.7-2-11.8-2.4l0,0c-0.1,0-0.2,0-0.3,0c-0.6,0-1.3-0.1-1.9-0.1c-0.7,0-1.4,0-2,0h-0.4
			c-7.5,0-14.4,1.6-20.7,4.6C38,287.6,32.2,292.5,28,299c-4.3,6.4-6.6,13.5-6.9,21.2c0,0.7,0,1.3,0,1.9c0,10.7,3.9,20.1,11.6,28
			c8.1,8.3,18.6,12.8,31.3,13.3c0.8,0,1.6,0.1,2.4,0.1c7.2,0,13.8-1.3,19.7-3.8c1.5-0.6,2.9-1.4,4.4-2.2c0.8-0.5,1.6-1,2.3-1.5
			l0.6-0.4l0.9-0.6c1.1-0.8,2.2-1.7,3.2-2.6l0.4-0.3c0.6-0.6,1.2-1.1,1.8-1.7l2.1-2.4l0.8-1l0.4-0.6l0.4-0.5
			c3.2-5.3,13.4-24.6,13.4-24.6v0l0.6-1.2l0.5-0.9c1.5-2.8,2.6-4.7,4.1-6.8l0-0.1c3.4-4.9,9.2-8.4,16.1-9c11.5-1,21.6,6.6,22.5,16.9
			c0.9,10.3-7.7,19.5-19.2,20.5c-2.4,0.2-4.7,0-6.9-0.4l-0.1,0c-8.4-1.8-13.8-7.9-16.5-10.7l-11.1,20.4c0,0,3.4,3.5,5.8,5.2
			c2.4,1.7,5.4,3.4,7.8,4.5c5.9,2.5,12.3,4,19.4,4c0.8,0,0.7,0,1.5,0c12.6-0.5,23.9-5.4,32-13.7c7.7-7.9,11.9-16.9,11.9-27.5V322
			C185.3,321.4,185.3,320.8,185.2,320.2z"/>
	</g>
</g>
<g>
	<path class="st0" d="M227.6,361.3c-5.7,0-10.9-0.7-15.6-2c-4.7-1.3-8.7-3.4-12-6.3c-3.3-2.9-5.9-6.6-7.7-11
		c-1.8-4.5-2.7-9.8-2.7-16.1V284h26.3v41.4c0,4.7,1.1,8.1,3.4,10.2c2.2,2.1,5.1,3.2,8.6,3.2c3.5,0,6.4-1,8.6-3
		c2.2-2,3.3-5.3,3.3-9.9v-42H266v41.2c0,6.5-0.9,12-2.8,16.5c-1.8,4.5-4.4,8.3-7.8,11.1c-3.4,2.9-7.4,5-12.1,6.3
		C238.5,360.6,233.3,361.3,227.6,361.3z"/>
</g>
</svg>
